<?xml version="1.0" encoding="iso-8859-1"?>
<!-- Generator: Adobe Illustrator 24.1.0, SVG Export Plug-In . SVG Version: 6.00 Build 0)  -->
<svg version="1.1" id="Capa_1" xmlns="http://www.w3.org/2000/svg" xmlns:xlink="http://www.w3.org/1999/xlink" x="0px" y="0px"
	 viewBox="0 0 512 512" style="enable-background:new 0 0 512 512;" xml:space="preserve">
<g>
	<g>
		<path style="fill:#D8AB8C;" d="M464.094,421.162H47.906c-22.316,0-40.407-18.091-40.407-40.406v-14.142
			c0-5.579,4.523-10.102,10.102-10.102h476.797c5.579,0,10.102,4.523,10.102,10.102v14.142
			C504.5,403.071,486.409,421.162,464.094,421.162z"/>
	</g>
	<g>
		<path style="fill:#CF9875;" d="M494.398,356.511h-41.417c5.579,0,10.102,4.523,10.102,10.102v14.142
			c0,22.316-18.091,40.406-40.406,40.406h41.417c22.316,0,40.407-18.091,40.407-40.406v-14.142
			C504.5,361.034,499.977,356.511,494.398,356.511z"/>
	</g>
	<g>
		<path style="fill:#E27F86;" d="M468.134,356.511H43.866c-5.579,0-10.102-4.523-10.102-10.102v-12.122
			c0-5.579,4.523-10.102,10.102-10.102h424.268c5.579,0,10.102,4.523,10.102,10.102v12.122
			C478.236,351.989,473.713,356.511,468.134,356.511z"/>
	</g>
	<g>
		<path style="fill:#DF646E;" d="M468.134,324.186H439.85c5.579,0,10.102,4.523,10.102,10.102v12.122
			c0,5.579-4.523,10.102-10.102,10.102h28.285c5.579,0,10.102-4.523,10.102-10.102v-12.122
			C478.236,328.709,473.713,324.186,468.134,324.186z"/>
	</g>
	<g>
		<path style="fill:#9A6A53;" d="M468.134,324.186H43.866c-5.579,0-10.102-4.523-10.102-10.102V285.8
			c0-5.579,4.523-10.102,10.102-10.102h424.268c5.579,0,10.102,4.523,10.102,10.102v28.285
			C478.236,319.663,473.713,324.186,468.134,324.186z"/>
	</g>
	<g>
		<path style="fill:#855B47;" d="M468.134,275.698H439.85c5.579,0,10.102,4.523,10.102,10.102v28.285
			c0,5.579-4.523,10.102-10.102,10.102h28.285c5.579,0,10.102-4.523,10.102-10.102V285.8
			C478.236,280.221,473.713,275.698,468.134,275.698z"/>
	</g>
	<g>
		<path style="fill:#F3D332;" d="M256,286.81l-60.688,34.679c-6.211,3.549-13.836,3.549-20.047,0l-60.688-34.679v-63.64L256,224.18
			V286.81z"/>
	</g>
	<g>
		<path style="fill:#F3D332;" d="M256,286.81l60.688,34.679c6.211,3.549,13.836,3.549,20.047,0l60.688-34.679v-63.64L256,224.18
			V286.81z"/>
	</g>
	<g>
		<g>
			<path style="fill:#DF646E;" d="M468.134,217.109H326.711v19.193c0,27.895,31.659,50.508,70.711,50.508
				s70.711-22.613,70.711-50.508V217.109z"/>
		</g>
	</g>
	<g>
		<g>
			<path style="fill:#DF646E;" d="M326.711,217.109H185.289v19.193c0,27.895,31.659,50.508,70.711,50.508
				s70.711-22.613,70.711-50.508V217.109z"/>
		</g>
	</g>
	<g>
		<g>
			<path style="fill:#DF646E;" d="M185.289,217.109H43.866v19.193c0,27.895,31.659,50.508,70.711,50.508
				s70.711-22.613,70.711-50.508V217.109z"/>
		</g>
	</g>
	<g>
		<path style="fill:#DC4955;" d="M326.711,236.302c0,5.342,1.17,10.487,3.321,15.319c0.233-0.246,0.46-0.487,0.679-0.719
			c0.423-0.449,0.907-0.963,1.375-1.448c0.469,0.485,0.952,0.999,1.376,1.449c5.834,6.195,16.691,17.725,36.675,17.725
			s30.842-11.531,36.675-17.725c0.424-0.449,0.908-0.964,1.377-1.449c0.469,0.486,0.954,1.001,1.378,1.451
			c5.834,6.194,16.692,17.724,36.676,17.724c2.073,0,4.043-0.13,5.924-0.36c9.977-8.707,15.969-19.836,15.969-31.966v-19.193
			H326.711V236.302z"/>
	</g>
	<g>
		<path style="fill:#DC4955;" d="M185.289,236.302c0,9.863,3.972,19.058,10.815,26.834c5.676,3.143,12.827,5.491,21.84,5.491
			c19.983,0,30.841-11.531,36.673-17.726c0.422-0.448,0.905-0.961,1.372-1.445c0.468,0.485,0.951,0.998,1.373,1.446
			c5.833,6.195,16.691,17.725,36.675,17.725c9.034,0,16.198-2.359,21.881-5.514c6.83-7.771,10.794-16.958,10.794-26.811v-19.193
			H185.289V236.302z"/>
	</g>
	<g>
		<path style="fill:#DC4955;" d="M43.866,236.302c0,12.13,5.992,23.259,15.97,31.967c1.878,0.229,3.844,0.358,5.914,0.358
			c19.984,0,30.841-11.531,36.674-17.726c0.422-0.448,0.906-0.962,1.373-1.446c0.468,0.485,0.951,0.998,1.374,1.447
			c5.833,6.195,16.691,17.725,36.675,17.725s30.842-11.531,36.675-17.725c0.423-0.449,0.906-0.962,1.374-1.447
			c0.468,0.485,0.951,0.998,1.374,1.447c0.223,0.236,0.455,0.483,0.692,0.733c2.155-4.837,3.328-9.987,3.328-15.333v-19.193H43.866
			V236.302z"/>
	</g>
	<g>
		<path style="fill:#ABD641;" d="M484.297,215.659c0,4.359-2.809,8.203-6.943,9.586c-12.454,4.168-14.734,19.138-31.112,19.138
			c-19.028,0-19.028-20.203-38.055-20.203c-19.025,0-19.025,20.203-38.05,20.203c-19.026,0-19.026-20.203-38.051-20.203
			c-19.025,0-19.025,20.203-38.049,20.203c-19.024,0-19.024-20.203-38.049-20.203c-19.022,0-19.022,20.203-38.044,20.203
			c-19.024,0-19.024-20.203-38.048-20.203c-19.025,0-19.025,20.203-38.05,20.203c-19.024,0-19.024-20.203-38.049-20.203
			c-19.023,0-19.023,20.203-38.047,20.203c-16.375,0-18.654-14.969-31.104-19.137c-4.134-1.384-6.942-5.227-6.942-9.586v-23.805
			h456.594V215.659z"/>
	</g>
	<g>
		<path style="fill:#9EC63D;" d="M380.385,191.855c-7.708,13.291-17.927,27.406-30.237,41.408c5.1,5.367,9.835,11.12,19.989,11.12
			c19.025,0,19.025-20.203,38.05-20.203c19.028,0,19.028,20.203,38.055,20.203c16.379,0,18.659-14.97,31.112-19.138
			c4.134-1.383,6.943-5.227,6.943-9.586v-23.805H380.385z"/>
	</g>
	<g>
		<path style="fill:#D8AB8C;" d="M504.5,151.448c0-33.474-55.629-60.61-124.25-60.61c-22.632,0-43.849,2.953-62.125,8.11
			c-18.276-5.157-39.493-8.11-62.125-8.11s-43.849,2.953-62.125,8.11c-18.276-5.157-39.493-8.11-62.125-8.11
			c-68.621,0-124.25,27.136-124.25,60.61v20.203c0,11.158,9.045,20.203,20.203,20.203h456.594c11.158,0,20.203-9.045,20.203-20.203
			V151.448z"/>
	</g>
	<g>
		<path style="fill:#CF9875;" d="M411.642,92.791c17.625,10.462,28.208,23.855,28.208,38.453v40.407
			c0,11.158-9.045,20.203-20.203,20.203h64.65c11.158,0,20.203-9.045,20.203-20.203v-20.203
			C504.5,123.265,465.064,99.576,411.642,92.791z"/>
	</g>
	<path d="M475.634,234.681c1.276-1.008,2.606-1.823,4.1-2.323c7.215-2.415,12.062-9.125,12.062-16.699v-17.348
		C503.439,195.032,512,184.326,512,171.65v-20.2c0-25.596-25.482-47.982-68.166-59.885c-3.992-1.112-8.126,1.22-9.239,5.21
		c-1.112,3.99,1.22,8.126,5.21,9.239C474.55,115.703,497,133.537,497,151.45v20.2c0,7.003-5.697,12.7-12.7,12.7H27.7
		c-7.003,0-12.7-5.697-12.7-12.7v-20.2c0-25.649,46.913-53.11,116.75-53.11c13.212,0,26.27,1.055,38.626,3.091
		c-14.323,9.235-22.924,20.616-23.43,21.295c-2.469,3.318-1.782,8.002,1.531,10.479c1.346,1.006,2.919,1.491,4.48,1.491
		c2.283,0,4.538-1.037,6.013-3.002c0.148-0.196,15.017-19.735,36.82-25.494c18.192-5.144,38.988-7.86,60.209-7.86
		c21.17,0,41.95,2.707,60.092,7.828c21.74,5.65,36.836,25.351,36.928,25.514c1.472,1.979,3.732,3.023,6.022,3.023
		c1.557,0,3.127-0.483,4.472-1.484c3.323-2.473,4.012-7.171,1.539-10.494c-0.505-0.679-9.107-12.061-23.43-21.295
		c12.357-2.037,25.414-3.091,38.626-3.091c8.943,0,17.823,0.476,26.393,1.416c4.119,0.447,7.821-2.521,8.272-6.639
		s-2.521-7.821-6.639-8.272c-9.11-0.998-18.54-1.504-28.027-1.504c-21.749,0-43.176,2.704-62.121,7.829
		C299.175,86.044,277.745,83.34,256,83.34s-43.175,2.704-62.129,7.829c-18.945-5.125-40.372-7.829-62.121-7.829
		C57.872,83.34,0,113.257,0,151.45v20.2c0,12.676,8.561,23.382,20.203,26.661v17.349c0,7.572,4.847,14.283,12.061,16.698
		c1.495,0.501,2.825,1.316,4.102,2.326v1.618c0,11.574,4.465,22.548,12.761,31.898H43.87c-9.71,0-17.61,7.895-17.61,17.6v28.28
		c0,3.762,1.196,7.244,3.213,10.108c-2.015,2.862-3.209,6.341-3.209,10.1v12.122c0,0.886,0.087,1.749,0.214,2.6H17.6
		c-9.705,0-17.6,7.896-17.6,17.6v14.15c0,26.413,21.492,47.9,47.91,47.9h332.01c4.142,0,7.5-3.358,7.5-7.5s-3.358-7.5-7.5-7.5H47.91
		c-18.147,0-32.91-14.759-32.91-32.9v-14.15c0-1.434,1.167-2.6,2.6-2.6h476.8c1.434,0,2.6,1.167,2.6,2.6v14.15
		c0,18.141-14.763,32.9-32.91,32.9h-49.17c-4.142,0-7.5,3.358-7.5,7.5s3.358,7.5,7.5,7.5h49.17c26.418,0,47.91-21.488,47.91-47.9
		v-14.15c0-9.705-7.896-17.6-17.6-17.6h-8.878c0.127-0.851,0.214-1.714,0.214-2.6v-12.122c0-3.758-1.194-7.237-3.209-10.1
		c2.017-2.864,3.213-6.346,3.213-10.108V285.8c0-9.705-7.9-17.6-17.61-17.6h-5.257c8.296-9.351,12.761-20.324,12.761-31.898V234.681
		z M397.423,279.31c-34.855,0-63.211-19.293-63.211-43.008v-4.495c4.601,0.583,7.253,3.17,11.439,7.617
		c5.228,5.551,11.733,12.46,24.486,12.46c12.752,0,19.258-6.909,24.485-12.46c4.792-5.088,7.571-7.744,13.565-7.744
		c5.995,0,8.775,2.655,13.567,7.744c5.228,5.551,11.735,12.46,24.488,12.46c4.432,0,8.096-0.846,11.228-2.168
		C449.165,266.88,425.394,279.31,397.423,279.31z M54.532,249.719c3.129,1.32,6.79,2.164,11.217,2.164
		c12.751,0,19.257-6.909,24.484-12.46c4.791-5.088,7.57-7.743,13.563-7.743c5.994,0,8.773,2.655,13.564,7.743
		c5.228,5.552,11.733,12.46,24.485,12.46c12.752,0,19.258-6.909,24.485-12.46c4.193-4.452,6.845-7.042,11.458-7.619v4.498
		c0,23.715-28.356,43.008-63.211,43.008C86.608,279.31,62.838,266.882,54.532,249.719z M256,279.31
		c-33.601,0-61.153-17.932-63.092-40.469c0.182,0.192,0.362,0.382,0.551,0.582c5.228,5.552,11.733,12.46,24.485,12.46
		c12.75,0,19.256-6.909,24.482-12.46c4.791-5.088,7.569-7.743,13.562-7.743c5.994,0,8.773,2.655,13.564,7.743
		c5.228,5.552,11.733,12.46,24.485,12.46s19.257-6.909,24.485-12.46c0.196-0.208,0.384-0.406,0.574-0.606
		C317.173,261.365,289.613,279.31,256,279.31z M168.937,278.118c6.887-4.919,12.376-10.617,16.352-16.84
		c3.976,6.223,9.465,11.921,16.352,16.84c8.815,6.297,19.341,10.873,30.785,13.526l-40.834,23.334
		c-3.888,2.222-8.718,2.222-12.604,0l-40.834-23.334C149.596,288.991,160.122,284.414,168.937,278.118z M256,295.448l37.173,21.242
		h-74.346L256,295.448z M320.409,314.977l-40.834-23.334c11.444-2.653,21.97-7.229,30.785-13.526
		c6.887-4.919,12.376-10.617,16.352-16.84c3.976,6.223,9.465,11.921,16.352,16.84c8.815,6.297,19.341,10.873,30.785,13.526
		l-40.834,23.334C329.126,317.199,324.296,317.199,320.409,314.977z M35.203,215.66v-16.31h441.594v16.309
		c0,1.115-0.733,2.109-1.823,2.474c-7.007,2.345-11.341,6.946-15.165,11.006c-4.792,5.088-7.572,7.744-13.567,7.744
		s-8.776-2.655-13.568-7.744c-5.228-5.551-11.734-12.459-24.487-12.459c-12.752,0-19.258,6.909-24.485,12.46
		c-4.792,5.088-7.571,7.744-13.565,7.744c-5.995,0-8.774-2.655-13.566-7.744c-5.228-5.551-11.733-12.46-24.485-12.46
		s-19.258,6.909-24.485,12.46c-4.791,5.088-7.57,7.743-13.564,7.743s-8.773-2.655-13.564-7.743
		c-5.228-5.552-11.733-12.46-24.485-12.46c-12.751,0-19.256,6.909-24.482,12.46c-4.791,5.088-7.569,7.743-13.562,7.743
		c-5.994,0-8.773-2.655-13.564-7.743c-5.228-5.552-11.733-12.46-24.485-12.46s-19.257,6.909-24.484,12.46
		c-4.792,5.088-7.571,7.744-13.565,7.744c-5.994,0-8.773-2.655-13.564-7.743c-5.228-5.552-11.733-12.46-24.485-12.46
		s-19.257,6.909-24.484,12.46c-4.791,5.088-7.57,7.743-13.563,7.743c-5.993,0-8.772-2.655-13.562-7.743
		c-3.823-4.06-8.155-8.661-15.161-11.006C35.936,217.769,35.203,216.774,35.203,215.66z M468.13,349.01
		c-0.01,0-0.019,0.001-0.029,0.001H43.899c-0.01,0-0.019-0.001-0.029-0.001h-0.019c-1.428-0.008-2.587-1.17-2.587-2.6v-12.122
		c0-1.426,1.154-2.586,2.577-2.599c0.01,0,0.019,0.001,0.029,0.001h24.6c4.142,0,7.5-3.358,7.5-7.5s-3.358-7.5-7.5-7.5H43.943
		c-0.026,0-0.051-0.004-0.077-0.004c-0.008,0-0.015,0.001-0.023,0.001c-1.427-0.015-2.583-1.177-2.583-2.607V285.8
		c0-1.434,1.171-2.6,2.61-2.6h24.524c12.763,6.91,28.054,10.769,44.128,11.074l39.228,22.416h-48.28c-4.142,0-7.5,3.358-7.5,7.5
		s3.358,7.5,7.5,7.5h364.66c0.01,0,0.019-0.001,0.029-0.001c1.423,0.013,2.577,1.173,2.577,2.599v12.122
		c0,1.43-1.159,2.592-2.587,2.6H468.13z M470.74,285.8v28.28c0,1.43-1.156,2.592-2.583,2.607c-0.008,0-0.015-0.001-0.023-0.001
		c-0.026,0-0.051,0.004-0.077,0.004H360.25l39.228-22.416c16.074-0.304,31.365-4.164,44.128-11.074h24.524
		C469.569,283.2,470.74,284.366,470.74,285.8z"/>
</g>
<g>
</g>
<g>
</g>
<g>
</g>
<g>
</g>
<g>
</g>
<g>
</g>
<g>
</g>
<g>
</g>
<g>
</g>
<g>
</g>
<g>
</g>
<g>
</g>
<g>
</g>
<g>
</g>
<g>
</g>
</svg>
