<?xml version="1.0" encoding="iso-8859-1"?>
<!-- Generator: Adobe Illustrator 24.1.0, SVG Export Plug-In . SVG Version: 6.00 Build 0)  -->
<svg version="1.1" id="Capa_1" xmlns="http://www.w3.org/2000/svg" xmlns:xlink="http://www.w3.org/1999/xlink" x="0px" y="0px"
	 viewBox="0 0 512 512" style="enable-background:new 0 0 512 512;" xml:space="preserve">
<g>
	<g>
		<polygon style="fill:#F8E883;" points="256.009,231.257 221.584,231.257 221.584,29.015 256.009,7.5 		"/>
	</g>
	<g>
		<polygon style="fill:#F8E883;" points="393.706,231.257 359.281,231.257 359.281,72.045 393.706,93.56 		"/>
	</g>
	<g>
		<polygon style="fill:#F8E883;" points="152.736,231.257 118.311,231.257 118.311,93.56 152.736,72.045 		"/>
	</g>
	<g>
		<polygon style="fill:#F3D332;" points="290.433,231.257 256.009,231.257 256.009,29.015 290.433,50.53 		"/>
	</g>
	<g>
		<polygon style="fill:#F3D332;" points="187.16,231.257 152.736,231.257 152.736,29.015 187.16,50.53 		"/>
	</g>
	<g>
		<polygon style="fill:#ECC52E;" points="324.857,231.257 290.433,231.257 290.433,82.803 324.857,61.288 		"/>
	</g>
	<g>
		<polygon style="fill:#ECC52E;" points="221.584,231.257 187.16,231.257 187.16,82.803 221.584,61.288 		"/>
	</g>
	<g>
		<polygon style="fill:#F3D332;" points="359.281,231.257 324.857,231.257 324.857,115.075 359.281,104.318 		"/>
	</g>
	<g>
		<polygon style="fill:#EEF9FA;" points="102.168,470.076 107.554,504.5 404.463,504.5 409.849,470.076 		"/>
	</g>
	<g>
		<polygon style="fill:#E27F86;" points="409.849,470.076 453.948,188.227 353.903,188.227 323.781,231.257 188.236,231.257 
			158.115,188.227 58.069,188.227 102.168,470.076 		"/>
	</g>
	<g>
		<polygon style="fill:#DCF2F6;" points="378.652,470.076 373.266,504.5 404.463,504.5 409.849,470.076 		"/>
	</g>
	<g>
		<polygon style="fill:#DF646E;" points="422.751,188.227 378.652,470.076 409.849,470.076 453.948,188.227 		"/>
	</g>
	<g>
		<polygon style="fill:#F8E883;" points="89.207,387.242 422.81,387.242 433.582,318.394 78.435,318.394 		"/>
	</g>
	<g>
		<polygon style="fill:#F3D332;" points="391.613,387.242 422.81,387.242 433.582,318.394 402.385,318.394 		"/>
	</g>
	<path d="M459.647,183.354c-1.425-1.666-3.507-2.624-5.698-2.624h-52.743V93.56c0-2.586-1.332-4.989-3.525-6.36l-34.425-21.515
		c-2.312-1.446-5.227-1.521-7.61-0.2c-2.385,1.321-3.864,3.833-3.864,6.56v26.759l-19.424,6.07V61.288
		c0-2.727-1.479-5.238-3.864-6.56c-2.384-1.321-5.299-1.245-7.61,0.2l-22.95,14.343V50.53c0-2.586-1.332-4.989-3.525-6.36
		l-30.898-19.312V7.5c0-2.727-1.479-5.238-3.864-6.56c-2.384-1.32-5.299-1.245-7.61,0.2L217.61,22.655
		c-2.193,1.371-3.525,3.774-3.525,6.36v28.116l-19.425,12.14V50.53c0-2.586-1.332-4.989-3.525-6.36l-34.424-21.515
		c-2.312-1.446-5.226-1.521-7.61-0.2c-2.385,1.322-3.864,3.833-3.864,6.56v38.874L114.337,87.2c-2.193,1.371-3.525,3.774-3.525,6.36
		v87.169H58.068c-4.47-0.105-8.205,4.26-7.41,8.66l49.49,316.27c0.571,3.65,3.716,6.34,7.41,6.34h296.901
		c3.694,0,6.839-2.69,7.41-6.34l49.49-316.27C461.698,187.224,461.072,185.019,459.647,183.354z M366.781,85.577l19.425,12.14
		v83.013h-19.425V85.577z M351.781,114.52v66.528c-1.61,0.475-3.041,1.472-4.027,2.881l-15.396,21.995V120.59L351.781,114.52z
		 M317.357,74.82v148.94h-19.425V86.96L317.357,74.82z M282.932,54.687V223.76h-19.424V42.546L282.932,54.687z M229.085,33.172
		l19.424-12.14v7.983V223.76h-19.424V33.172z M160.236,42.547l19.424,12.14l-0.001,67.443c0,4.142,3.357,7.5,7.5,7.5
		c4.143,0,7.5-3.358,7.5-7.5V86.96l19.426-12.141v148.94h-19.426v-66.63c0-4.142-3.357-7.5-7.5-7.5c-4.143,0-7.5,3.358-7.5,7.5
		v48.793l-15.396-21.994c-0.986-1.409-2.417-2.406-4.027-2.881V42.547z M125.811,97.717l19.425-12.14v95.153h-19.425V97.717z
		 M113.976,497l-3.039-19.42h19.302c4.143,0,7.5-3.358,7.5-7.5s-3.357-7.5-7.5-7.5H108.59l-10.615-67.838h316.068l-10.615,67.838
		H165.239c-4.143,0-7.5,3.358-7.5,7.5s3.357,7.5,7.5,7.5H401.08L398.041,497H113.976z M427.164,310.89h-67.886
		c-4.143,0-7.5,3.358-7.5,7.5c0,4.142,3.357,7.5,7.5,7.5h65.539l-8.427,53.852H95.627L87.2,325.89h237.078
		c4.143,0,7.5-3.358,7.5-7.5c0-4.142-3.357-7.5-7.5-7.5H84.853L66.833,195.73h87.381l27.881,39.831
		c1.403,2.005,3.697,3.199,6.145,3.199h135.539c2.447,0,4.741-1.194,6.145-3.199l27.881-39.831h87.381L427.164,310.89z"/>
</g>
<g>
</g>
<g>
</g>
<g>
</g>
<g>
</g>
<g>
</g>
<g>
</g>
<g>
</g>
<g>
</g>
<g>
</g>
<g>
</g>
<g>
</g>
<g>
</g>
<g>
</g>
<g>
</g>
<g>
</g>
</svg>
