<?xml version="1.0" encoding="iso-8859-1"?>
<!-- Generator: Adobe Illustrator 24.1.0, SVG Export Plug-In . SVG Version: 6.00 Build 0)  -->
<svg version="1.1" id="Capa_1" xmlns="http://www.w3.org/2000/svg" xmlns:xlink="http://www.w3.org/1999/xlink" x="0px" y="0px"
	 viewBox="0 0 512 512" style="enable-background:new 0 0 512 512;" xml:space="preserve">
<g>
	<g>
		<circle style="fill:#4980AC;" cx="256" cy="256" r="183.85"/>
	</g>
	<g>
		<path style="fill:#407194;" d="M366.532,109.082c23.183,30.766,36.932,69.042,36.932,110.532
			c0,101.537-82.312,183.85-183.85,183.85c-41.49,0-79.766-13.749-110.532-36.932c33.552,44.526,86.87,73.318,146.918,73.318
			c101.537,0,183.85-82.312,183.85-183.85C439.85,195.953,411.058,142.634,366.532,109.082z"/>
	</g>
	<g>
		<circle style="fill:#E27F86;" cx="256" cy="256" r="151.524"/>
	</g>
	<g>
		<path style="fill:#DF646E;" d="M351.894,138.771c21.422,26.139,34.295,59.541,34.295,95.894
			c0,83.551-67.974,151.524-151.524,151.524c-36.354,0-69.755-12.873-95.895-34.295c27.811,33.936,70.033,55.63,117.23,55.63
			c83.551,0,151.524-67.974,151.524-151.524C407.524,208.803,385.831,166.581,351.894,138.771z"/>
	</g>
	<g>
		<path style="fill:#B36D3C;" d="M494.398,316.61h-12.122c-5.579,0-10.102-4.523-10.102-10.102V205.492
			c0-5.579,4.523-10.102,10.102-10.102h12.122c5.579,0,10.102,4.523,10.102,10.102v101.016
			C504.5,312.087,499.977,316.61,494.398,316.61z"/>
	</g>
	<g>
		<path style="fill:#B36D3C;" d="M17.602,316.61h12.122c5.579,0,10.102-4.523,10.102-10.102V205.492
			c0-5.579-4.523-10.102-10.102-10.102H17.602c-5.579,0-10.102,4.523-10.102,10.102v101.016
			C7.5,312.087,12.023,316.61,17.602,316.61z"/>
	</g>
	<g>
		<g>
			<circle style="fill:#E38523;" cx="256" cy="153.974" r="17.173"/>
		</g>
	</g>
	<g>
		<g>
			<circle style="fill:#E38523;" cx="345.936" cy="303.059" r="17.173"/>
		</g>
	</g>
	<g>
		<g>
			<circle style="fill:#E38523;" cx="180.344" cy="323.527" r="17.173"/>
		</g>
	</g>
	<g>
		<g>
			<path style="fill:#FCF7ED;" d="M154.852,236.053l11.292-11.292c3.945-3.945,3.945-10.341,0-14.286l-7.621-7.621
				c-4.667-4.667-3.715-12.548,2.003-15.844c18.536-10.682,42.627-8.098,58.476,7.751s18.432,39.94,7.751,58.476
				c-3.295,5.719-11.177,6.671-15.844,2.003l-7.621-7.621c-3.945-3.945-10.341-3.945-14.286,0l-11.615,11.615
				c-6.495,6.495-17.143,6.307-23.397-0.565C148.133,252.231,148.699,242.206,154.852,236.053z"/>
		</g>
	</g>
	<g>
		<g>
			<path style="fill:#92B738;" d="M234.667,339.593c0,0-1.085-23.201,7.857-32.143c8.942-8.942,32.143-7.857,32.143-7.857
				s1.085,23.201-7.857,32.143C257.869,340.677,234.667,339.593,234.667,339.593z"/>
		</g>
	</g>
	<g>
		<g>
			<path style="fill:#92B738;" d="M334.085,222.451c0,0-17.173-15.639-17.173-28.285s17.173-28.285,17.173-28.285
				s17.173,15.639,17.173,28.285S334.085,222.451,334.085,222.451z"/>
		</g>
	</g>
	<g>
		<path d="M256,96.98c-34.525,0-67.38,10.917-95.01,31.572c-3.318,2.479-3.997,7.18-1.517,10.497
			c2.48,3.319,7.182,3.999,10.497,1.517c25.018-18.701,54.767-28.586,86.029-28.586c79.413,0,144.02,64.606,144.02,144.02
			S335.413,400.02,256,400.02S111.98,335.413,111.98,256c0-33.832,12.013-66.728,33.826-92.629
			c2.669-3.168,2.264-7.899-0.905-10.567c-3.167-2.67-7.899-2.265-10.567,0.905C110.246,182.311,96.98,218.638,96.98,256
			c0,87.684,71.336,159.02,159.02,159.02S415.02,343.684,415.02,256S343.684,96.98,256,96.98z"/>
		<path d="M504.5,227.13c4.143,0,7.5-3.357,7.5-7.5v-14.14c0-9.705-7.896-17.601-17.6-17.601h-12.12
			c-9.71,0-17.61,7.896-17.61,17.601v6.644h-22.401C422.387,127.695,346.421,64.65,256,64.65S89.613,127.695,69.731,212.134H47.33
			v-6.644c0-9.705-7.9-17.601-17.61-17.601H17.6c-9.704,0-17.6,7.896-17.6,17.601v101.02c0,9.705,7.896,17.601,17.6,17.601h12.12
			c9.71,0,17.61-7.896,17.61-17.601v-6.644h22.401C89.613,384.305,165.579,447.35,256,447.35s166.387-63.044,186.269-147.483h22.401
			v6.644c0,9.705,7.9,17.601,17.61,17.601h12.12c9.704,0,17.6-7.896,17.6-17.601v-51.88c0-4.143-3.357-7.5-7.5-7.5
			s-7.5,3.357-7.5,7.5v51.88c0,1.434-1.166,2.601-2.6,2.601h-12.12c-1.439,0-2.61-1.167-2.61-2.601V205.49
			c0-1.434,1.171-2.601,2.61-2.601h12.12c1.434,0,2.6,1.167,2.6,2.601v14.14C497,223.772,500.357,227.13,504.5,227.13z
			 M47.33,284.866v-5.097c0-4.143-3.357-7.5-7.5-7.5s-7.5,3.357-7.5,7.5v26.74c0,1.434-1.171,2.601-2.61,2.601H17.6
			c-1.434,0-2.6-1.167-2.6-2.601V205.49c0-1.434,1.166-2.601,2.6-2.601h12.12c1.439,0,2.61,1.167,2.61,2.601v39.279
			c0,4.143,3.357,7.5,7.5,7.5s7.5-3.357,7.5-7.5v-17.636h19.496C65.395,236.551,64.65,246.19,64.65,256s0.745,19.449,2.176,28.866
			H47.33z M256,432.35c-97.239,0-176.35-79.11-176.35-176.35S158.761,79.65,256,79.65S432.35,158.761,432.35,256
			S353.239,432.35,256,432.35z M445.174,284.866c1.431-9.417,2.176-19.056,2.176-28.866s-0.745-19.449-2.176-28.866h19.496v57.732
			H445.174z"/>
		<path d="M256,129.301c-13.604,0-24.673,11.068-24.673,24.673s11.068,24.673,24.673,24.673s24.673-11.068,24.673-24.673
			S269.604,129.301,256,129.301z M256,163.646c-5.334,0-9.673-4.339-9.673-9.673s4.339-9.673,9.673-9.673s9.673,4.339,9.673,9.673
			S261.334,163.646,256,163.646z"/>
		<path d="M321.264,303.059c0,13.604,11.068,24.673,24.673,24.673s24.673-11.068,24.673-24.673s-11.068-24.673-24.673-24.673
			S321.264,289.454,321.264,303.059z M345.937,293.386c5.334,0,9.673,4.339,9.673,9.673s-4.339,9.673-9.673,9.673
			s-9.673-4.339-9.673-9.673S340.603,293.386,345.937,293.386z"/>
		<path d="M180.344,298.854c-13.604,0-24.673,11.067-24.673,24.672s11.068,24.673,24.673,24.673s24.673-11.068,24.673-24.673
			S193.948,298.854,180.344,298.854z M180.344,333.199c-5.334,0-9.673-4.339-9.673-9.673c0-5.333,4.339-9.672,9.673-9.672
			s9.673,4.339,9.673,9.672C190.017,328.86,185.678,333.199,180.344,333.199z"/>
		<path d="M160.841,215.778c0.664,0.663,0.763,1.437,0.763,1.839c0,0.403-0.099,1.177-0.763,1.84l-11.292,11.292h0.001
			c-9.133,9.132-9.619,23.611-1.106,32.966c4.405,4.841,10.427,7.592,16.956,7.745c0.183,0.004,0.365,0.006,0.548,0.006
			c6.245,0,12.32-2.508,16.742-6.93l11.616-11.614c0.663-0.664,1.437-0.763,1.84-0.763c0.402,0,1.176,0.099,1.839,0.763l7.621,7.621
			c3.913,3.912,9.302,5.742,14.798,5.015c5.438-0.719,10.121-3.845,12.848-8.577c12.609-21.881,8.931-49.647-8.945-67.524
			c-17.876-17.876-45.644-21.551-67.523-8.945c-4.732,2.728-7.859,7.409-8.577,12.847c-0.727,5.491,1.102,10.886,5.015,14.8
			L160.841,215.778z M163.075,195.323c0.073-0.557,0.341-1.322,1.196-1.815c6.359-3.665,13.396-5.448,20.394-5.448
			c10.62,0,21.144,4.113,29.033,12.004c13.089,13.088,15.785,33.413,6.557,49.428c-0.52,0.9-1.361,1.136-1.816,1.195
			c-0.488,0.064-1.423,0.053-2.226-0.751l-7.621-7.621c-6.863-6.861-18.029-6.862-24.893,0l-11.616,11.614
			c-1.69,1.692-3.925,2.604-6.331,2.535c-2.39-0.056-4.597-1.066-6.215-2.845c-3.06-3.362-2.782-8.863,0.618-12.263c0,0,0,0,0.001,0
			l11.292-11.292c6.862-6.863,6.862-18.03,0-24.894l-7.621-7.62C163.023,196.746,163.011,195.81,163.075,195.323z"/>
		<path d="M282.16,299.241c-0.182-3.866-3.275-6.961-7.143-7.142c-2.709-0.12-26.828-0.921-37.797,10.047
			c-10.968,10.969-10.172,35.083-10.046,37.796c0.181,3.867,3.275,6.962,7.143,7.143c0.456,0.021,1.518,0.062,3.021,0.062
			c7.433,0,25.653-0.984,34.775-10.107C283.083,326.071,282.287,301.955,282.16,299.241z M261.507,326.432
			c-3.362,3.363-11.798,5.062-19.309,5.562c0.65-10.773,3.848-17.459,5.629-19.24c3.354-3.353,11.747-5.053,19.237-5.558
			C266.559,314.688,264.859,323.08,261.507,326.432z"/>
		<path d="M339.135,160.337c-2.861-2.607-7.238-2.607-10.1,0c-2.009,1.829-19.623,18.317-19.623,33.829s17.614,32.001,19.623,33.83
			c1.431,1.304,3.24,1.955,5.05,1.955s3.619-0.651,5.05-1.955c2.009-1.829,19.623-18.318,19.623-33.83
			S341.144,162.166,339.135,160.337z M334.085,211.697c-4.94-5.654-9.673-12.791-9.673-17.531c0-4.756,4.766-11.925,9.721-17.586
			c7.158,8.078,9.625,15.065,9.625,17.586C343.758,198.906,339.025,206.043,334.085,211.697z"/>
		<path d="M262.321,233.09c1.464,1.464,3.384,2.196,5.303,2.196s3.839-0.732,5.304-2.197c2.929-2.929,2.929-7.678-0.001-10.606
			c-1.639-1.639-1.743-2.7-1.854-6.128c-0.133-4.119-0.333-10.345-6.239-16.252c-2.93-2.928-7.678-2.928-10.607,0
			c-2.929,2.93-2.929,7.678,0,10.607c1.639,1.639,1.744,2.699,1.854,6.127C256.213,220.957,256.414,227.183,262.321,233.09z"/>
		<path d="M282.212,269.397c1.465,1.464,3.385,2.196,5.304,2.196s3.839-0.732,5.304-2.196c1.639-1.64,2.699-1.744,6.127-1.854
			c4.12-0.133,10.345-0.333,16.252-6.239c2.929-2.93,2.929-7.678,0-10.607c-2.93-2.928-7.678-2.928-10.607,0
			c-1.639,1.64-2.699,1.744-6.127,1.854c-4.12,0.133-10.345,0.333-16.252,6.239C279.283,261.72,279.283,266.468,282.212,269.397z"/>
		<path d="M288.791,368.36c0,4.143,3.357,7.5,7.5,7.5s7.5-3.357,7.5-7.5c0-2.318,0.677-3.143,3.022-5.645
			c2.819-3.007,7.079-7.551,7.079-15.903c0-4.143-3.357-7.5-7.5-7.5s-7.5,3.357-7.5,7.5c0,2.317-0.676,3.142-3.021,5.644
			C293.052,355.463,288.791,360.007,288.791,368.36z"/>
		<path d="M353.007,251.966c0-3.905-3.166-7.071-7.071-7.071s-7.071,3.166-7.071,7.071s3.166,7.071,7.071,7.071
			S353.007,255.871,353.007,251.966z"/>
		<path d="M303.925,300.028c3.905,0,7.071-3.166,7.071-7.071s-3.166-7.071-7.071-7.071s-7.071,3.166-7.071,7.071
			S300.02,300.028,303.925,300.028z"/>
		<path d="M211.659,156.283c0-3.905-3.166-7.071-7.071-7.071s-7.071,3.166-7.071,7.071c0,3.905,3.166,7.071,7.071,7.071
			S211.659,160.188,211.659,156.283z"/>
		<circle cx="256" cy="269.036" r="7.071"/>
		<path d="M209.053,289.794c0,3.812,3.09,6.903,6.903,6.903c3.812,0,6.903-3.09,6.903-6.903c0-3.812-3.09-6.903-6.903-6.903
			C212.143,282.891,209.053,285.981,209.053,289.794z"/>
		<path d="M248.929,367.118c0,3.905,3.166,7.071,7.071,7.071s7.071-3.166,7.071-7.071s-3.166-7.071-7.071-7.071
			S248.929,363.213,248.929,367.118z"/>
		<path d="M307.934,160.771c0-3.905-3.166-7.071-7.071-7.071s-7.071,3.166-7.071,7.071s3.166,7.071,7.071,7.071
			S307.934,164.677,307.934,160.771z"/>
		<path d="M286.865,216.596c0,3.826,3.101,6.927,6.927,6.927c3.826,0,6.927-3.101,6.927-6.927s-3.101-6.927-6.927-6.927
			C289.966,209.669,286.865,212.771,286.865,216.596z"/>
	</g>
</g>
<g>
</g>
<g>
</g>
<g>
</g>
<g>
</g>
<g>
</g>
<g>
</g>
<g>
</g>
<g>
</g>
<g>
</g>
<g>
</g>
<g>
</g>
<g>
</g>
<g>
</g>
<g>
</g>
<g>
</g>
</svg>
