<?xml version="1.0" encoding="iso-8859-1"?>
<!-- Generator: Adobe Illustrator 24.1.0, SVG Export Plug-In . SVG Version: 6.00 Build 0)  -->
<svg version="1.1" id="Capa_1" xmlns="http://www.w3.org/2000/svg" xmlns:xlink="http://www.w3.org/1999/xlink" x="0px" y="0px"
	 viewBox="0 0 512 512" style="enable-background:new 0 0 512 512;" xml:space="preserve">
<g>
	<circle style="fill:#FBF0DC;" cx="256" cy="256" r="248.5"/>
	<path style="fill:#F4E2C1;" d="M419.608,68.97c38.269,43.711,61.47,100.947,61.47,163.608c0,137.243-111.257,248.5-248.5,248.5
		c-62.661,0-119.897-23.201-163.608-61.47C114.519,471.636,181.418,504.5,256,504.5c137.243,0,248.5-111.257,248.5-248.5
		C504.5,181.418,471.636,114.519,419.608,68.97z"/>
	<circle style="fill:#F3D69E;" cx="256" cy="256" r="202.033"/>
	<g>
		<path style="fill:#E9A761;" d="M180.368,199.364l9.357,17.966c10.437,20.04,31.156,32.609,53.751,32.609h62.82
			c22.82,0,41.319,18.499,41.319,41.319v0c0,18.561-12.377,34.844-30.261,39.812l-29.364,8.157
			c-13.116,3.643-22.192,15.585-22.192,29.197v26.967l77.558-19.009c45.199-11.078,76.984-51.595,76.984-98.132v0
			c0-55.801-45.236-101.036-101.036-101.036h-125.5C182.433,177.214,175.114,189.277,180.368,199.364z"/>
		<path style="fill:#E38523;" d="M381.827,198.878c13.567,17.2,21.665,38.915,21.665,62.522v0c0,46.536-31.786,87.054-76.984,98.132
			l-60.708,14.879v20.98l77.558-19.009c45.199-11.078,76.984-51.595,76.984-98.132v0
			C420.342,246.056,405.283,217.381,381.827,198.878z"/>
		<path style="fill:#E38523;" d="M332.555,323.158c-4.36,3.591-9.498,6.33-15.2,7.913l-22.038,6.122l21.41,45.716l26.631-6.527
			c10.777-2.641,20.789-6.96,29.791-12.631L332.555,323.158z"/>
		<path style="fill:#D76718;" d="M326.507,359.532l-18.594,4.557l8.814,18.82l26.631-6.527c10.777-2.641,20.789-6.96,29.791-12.631
			l-16.85-16.85C347.296,352.572,337.284,356.891,326.507,359.532z"/>
		<path style="fill:#E38523;" d="M189.725,217.33c10.437,20.04,31.156,32.609,53.751,32.609H295.7v-72.726H193.806
			c-11.373,0-18.691,12.063-13.438,22.15L189.725,217.33z"/>
		<path style="fill:#D76718;" d="M279.916,177.214v21.329c0,19.215-15.577,34.793-34.793,34.793h-17.431
			c-12.872,0-25.132-4.084-35.232-11.3c11.071,17.279,30.248,27.904,51.016,27.904H295.7v-72.726H279.916z"/>
		<path style="fill:#E38523;" d="M420.342,278.25c0-31.862-14.753-60.275-37.796-78.793l-55.865,55.865
			c11.328,6.44,19.32,18.071,20.716,31.665c24.27,0.266,52.246,0.488,72.531,0.393C420.199,284.367,420.342,281.322,420.342,278.25
			L420.342,278.25z"/>
		<path style="fill:#D76718;" d="M382.545,199.457l-0.152,0.152c13.224,17.083,21.099,38.516,21.099,61.791v0
			c0,8.941-1.178,17.657-3.394,25.987c7.089,0.021,13.8,0.021,19.829-0.007c0.272-3.013,0.414-6.058,0.414-9.13v0
			C420.342,246.388,405.588,217.975,382.545,199.457z"/>
	</g>
	<g>
		<path style="fill:#F8E883;" d="M216.665,313.453c-27.615,27.615-72.386,27.615-100.001,0c-27.615-27.615-27.615-72.386,0-100.001
			L216.665,313.453z"/>
		<path style="fill:#F3D332;" d="M206.033,302.821c-27.514,18.678-65.268,15.841-89.651-8.543
			c-11.087-11.087-17.712-24.941-19.897-39.339c-2.511,20.818,4.202,42.537,20.179,58.514c27.615,27.615,72.387,27.615,100.001,0
			L206.033,302.821z"/>
	</g>
	<g>
		<path style="fill:#92B738;" d="M185.644,402.909c0,0-1.085-23.201,7.857-32.143s32.143-7.857,32.143-7.857
			s1.085,23.201-7.857,32.143C208.845,403.994,185.644,402.909,185.644,402.909z"/>
	</g>
	<g>
		<path style="fill:#92B738;" d="M307.818,102.281c0,0,23.201-1.085,32.143,7.857c8.942,8.942,7.857,32.143,7.857,32.143
			s-23.201,1.085-32.143-7.857S307.818,102.281,307.818,102.281z"/>
	</g>
	<g>
		<path d="M262.168,215.62c4.463,0,8.081-3.618,8.081-8.081s-3.618-8.081-8.081-8.081c-4.463,0-8.081,3.618-8.081,8.081
			S257.704,215.62,262.168,215.62z"/>
		<path d="M437.019,74.981C388.666,26.629,324.379,0,256,0S123.334,26.629,74.981,74.981S0,187.621,0,256
			s26.629,132.666,74.981,181.019S187.621,512,256,512c36.624,0,71.996-7.578,105.134-22.523c3.775-1.703,5.456-6.145,3.753-9.92
			c-1.704-3.777-6.149-5.457-9.92-3.754C323.78,489.868,290.483,497,256,497c-64.372,0-124.893-25.068-170.412-70.588
			S15,320.372,15,256S40.068,131.107,85.588,85.588S191.628,15,256,15s124.893,25.068,170.412,70.588S497,191.628,497,256
			c0,41.358-10.65,82.153-30.801,117.974c-19.54,34.737-47.679,64.383-81.373,85.73c-3.499,2.218-4.539,6.851-2.321,10.35
			c2.217,3.5,6.852,4.535,10.349,2.322c35.783-22.672,65.666-54.155,86.419-91.048C500.684,343.268,512,299.93,512,256
			C512,187.621,485.371,123.334,437.019,74.981z"/>
		<path d="M118.828,97.593C72.843,137.455,46.47,195.192,46.47,256c0,115.535,93.995,209.53,209.53,209.53
			S465.53,371.535,465.53,256S371.535,46.47,256,46.47c-38.093,0-75.382,10.32-107.836,29.844c-3.55,2.136-4.695,6.744-2.561,10.293
			c2.135,3.55,6.743,4.693,10.293,2.561C186.016,71.047,220.631,61.47,256,61.47c107.265,0,194.53,87.266,194.53,194.53
			S363.265,450.53,256,450.53S61.47,363.265,61.47,256c0-56.456,24.487-110.062,67.184-147.073c3.129-2.713,3.467-7.45,0.754-10.58
			C126.693,95.217,121.956,94.879,118.828,97.593z"/>
		<path d="M259.481,139.411H171.46c-12.49,0-22.651,10.161-22.651,22.651s10.161,22.651,22.651,22.651h1.017
			c-2.135,5.89-1.737,12.401,1.242,18.111l9.358,17.968c10.949,21.038,31.758,34.653,55.141,36.44v7.623
			c0,1.271,0.323,2.521,0.939,3.634l5.119,9.243c1.369,2.472,3.929,3.867,6.567,3.867c1.229,0,2.476-0.303,3.627-0.94
			c3.623-2.007,4.934-6.57,2.927-10.194l-4.18-7.548v-5.478h23.87v7.416c0,1.271,0.323,2.521,0.939,3.634l5.119,9.243
			c1.369,2.472,3.929,3.867,6.567,3.867c1.229,0,2.476-0.303,3.627-0.94c3.623-2.007,4.934-6.57,2.927-10.194l-4.18-7.548v-5.478
			H306.3c18.648,0,33.82,15.171,33.82,33.819c0,7.445-2.384,14.522-6.886,20.455c-4.522,5.936-10.707,10.131-17.882,12.129
			l-29.368,8.16c-16.301,4.525-27.685,19.5-27.685,36.416v26.97c0,2.304,1.059,4.479,2.871,5.9c1.334,1.047,2.968,1.6,4.629,1.6
			c0.596,0,1.195-0.071,1.785-0.216l77.562-19.01c48.688-11.936,82.693-55.283,82.693-105.414c0-28.986-11.288-56.244-31.786-76.754
			c-12.111-12.11-27.079-21.281-43.286-26.522c-3.943-1.27-8.17,0.889-9.444,4.829c-1.273,3.941,0.888,8.17,4.829,9.444
			c8.083,2.613,15.806,6.37,22.905,11.091l-45.897,45.896c-5.806-2.441-12.178-3.793-18.861-3.793h-3.1v-57.73h12.729
			c4.143,0,7.5-3.357,7.5-7.5s-3.357-7.5-7.5-7.5l-144.47,0.004c-4.219,0-7.651-3.433-7.651-7.651s3.433-7.651,7.651-7.651h88.021
			c12.49,0,22.651-10.161,22.651-22.651s-10.161-22.651-22.651-22.651h-22.346c-4.143,0-7.5,3.357-7.5,7.5s3.357,7.5,7.5,7.5h22.346
			c4.219,0,7.651,3.433,7.651,7.651S263.7,139.411,259.481,139.411z M273.3,385.829V368.42c0-10.202,6.866-19.233,16.698-21.963
			l1.218-0.338l14.837,31.683L273.3,385.829z M341.575,369.096l-20.664,5.064l-15.039-32.114l13.501-3.751
			c4.405-1.227,8.547-3.032,12.359-5.354l29.123,29.124C354.804,365.053,348.358,367.433,341.575,369.096z M374.101,354.096
			l-30.894-30.894c0.675-0.781,1.336-1.579,1.967-2.408c5.834-7.689,9.193-16.698,9.827-26.226
			c21.852,0.222,40.145,0.335,54.595,0.335c0.595,0,1.172,0,1.754-0.001C407.038,318.962,393.528,340.089,374.101,354.096z
			 M382.925,209.685c0.853,0.791,1.697,1.593,2.52,2.416c17.666,17.675,27.395,41.167,27.395,66.148c0,0.553-0.025,1.1-0.035,1.651
			c-15.169,0.019-34.989-0.098-59.113-0.348c-2.455-9.934-7.96-18.673-15.46-25.175L382.925,209.685z M187.261,188.397
			c0.666-1.099,2.625-3.641,6.454-3.684h0.091c0.026,0,0.051-0.004,0.077-0.004H288.2v57.73h-44.72
			c-19.878,0-37.925-10.948-47.099-28.575l-9.362-17.975C185.224,192.449,186.59,189.504,187.261,188.397z"/>
		<path d="M111.361,208.148c-14.773,14.772-22.909,34.413-22.909,55.304c0,20.892,8.136,40.532,22.908,55.305
			c15.249,15.248,35.273,22.87,55.304,22.87c20.026,0,40.059-7.625,55.304-22.87c1.407-1.407,2.197-3.314,2.197-5.304
			s-0.79-3.896-2.196-5.304L121.968,208.148C119.038,205.222,114.289,205.22,111.361,208.148z M170.306,277.7l35.44,35.44
			c-14.35,11.302-32.504,15.488-49.683,12.588L170.306,277.7z M141.67,321.503c-7.16-3.072-13.867-7.517-19.704-13.354
			c-5.736-5.736-10.22-12.388-13.346-19.617l46.956-13.925L141.67,321.503z M104.367,274.148c-0.594-3.501-0.915-7.073-0.915-10.696
			c0-14.358,4.756-27.985,13.521-39.084l35.51,35.51L104.367,274.148z"/>
		<path d="M225.994,355.417c-2.715-0.124-26.828-0.923-37.796,10.046c-10.97,10.968-10.174,35.083-10.047,37.797
			c0.182,3.866,3.275,6.96,7.142,7.142c0.457,0.021,1.52,0.062,3.024,0.062c7.435,0,25.65-0.985,34.773-10.107
			c10.968-10.969,10.172-35.083,10.045-37.797C232.954,358.692,229.86,355.599,225.994,355.417z M212.483,389.748
			c-3.362,3.363-11.799,5.063-19.309,5.562c0.649-10.773,3.847-17.458,5.63-19.241c3.352-3.353,11.746-5.052,19.235-5.557
			C217.535,378.004,215.835,386.397,212.483,389.748z"/>
		<path d="M348.169,149.773c3.866-0.182,6.961-3.275,7.142-7.143c0.126-2.713,0.922-26.827-10.046-37.796
			c-10.971-10.97-35.084-10.168-37.798-10.046c-3.866,0.182-6.961,3.275-7.142,7.143c-0.126,2.713-0.922,26.827,10.046,37.796
			c9.124,9.123,27.34,10.107,34.773,10.107C346.649,149.835,347.712,149.794,348.169,149.773z M320.979,129.12
			c-3.352-3.352-5.052-11.743-5.557-19.235c7.49,0.506,15.884,2.205,19.235,5.558c3.353,3.352,5.053,11.746,5.558,19.235
			C332.724,134.172,324.33,132.473,320.979,129.12z"/>
	</g>
</g>
<g>
</g>
<g>
</g>
<g>
</g>
<g>
</g>
<g>
</g>
<g>
</g>
<g>
</g>
<g>
</g>
<g>
</g>
<g>
</g>
<g>
</g>
<g>
</g>
<g>
</g>
<g>
</g>
<g>
</g>
</svg>
