<?xml version="1.0" encoding="iso-8859-1"?>
<!-- Generator: Adobe Illustrator 24.1.0, SVG Export Plug-In . SVG Version: 6.00 Build 0)  -->
<svg version="1.1" id="Capa_1" xmlns="http://www.w3.org/2000/svg" xmlns:xlink="http://www.w3.org/1999/xlink" x="0px" y="0px"
	 viewBox="0 0 512 512" style="enable-background:new 0 0 512 512;" xml:space="preserve">
<g>
	<g>
		<g>
			<rect x="70.037" y="29.728" style="fill:#D8AB8C;" width="363.804" height="32.332"/>
		</g>
		<g>
			<path style="fill:#F3D332;" d="M401.51,224.617V23.666c0-8.928-7.238-16.166-16.166-16.166h0
				c-8.928,0-16.166,7.238-16.166,16.166v200.951H401.51z"/>
		</g>
		<g>
			<path style="fill:#DBB72B;" d="M369.178,224.617V23.666c0-8.928-7.238-16.166-16.166-16.166h0
				c-8.928,0-16.166,7.238-16.166,16.166v200.951H369.178z"/>
		</g>
		<g>
			<path style="fill:#F3D332;" d="M336.846,224.617V23.666c0-8.928-7.238-16.166-16.166-16.166h0
				c-8.928,0-16.166,7.238-16.166,16.166v200.951H336.846z"/>
		</g>
		<g>
			<rect x="70.037" y="62.06" style="fill:#CF9875;" width="363.804" height="32.332"/>
		</g>
	</g>
	<g>
		<g>
			<path style="fill:#F9C8DC;" d="M235.325,145.017l7.05-4.52c4.728-3.031,11.039-1.34,13.618,3.649l3.846,7.439
				c1.711,3.31,5.193,5.32,8.915,5.147l8.365-0.389c5.61-0.261,10.23,4.359,9.969,9.969l-0.389,8.365
				c-0.173,3.722,1.837,7.204,5.147,8.915l7.439,3.846c4.989,2.579,6.68,8.89,3.649,13.618l-4.52,7.05
				c-2.011,3.137-2.011,7.157,0,10.294l4.52,7.05c3.031,4.728,1.34,11.039-3.649,13.618l-7.439,3.846
				c-3.31,1.711-5.32,5.193-5.147,8.915l0.389,8.365c0.261,5.61-4.359,10.23-9.969,9.969l-8.365-0.389
				c-3.722-0.173-7.204,1.837-8.915,5.147l-3.846,7.439c-2.579,4.989-8.89,6.68-13.618,3.649l-7.05-4.52
				c-3.137-2.011-7.157-2.011-10.294,0l-7.05,4.52c-4.728,3.031-11.039,1.34-13.618-3.649l-3.846-7.439
				c-1.711-3.31-5.193-5.32-8.915-5.147l-8.365,0.389c-5.61,0.261-10.23-4.359-9.969-9.969l0.389-8.365
				c0.173-3.722-1.837-7.204-5.147-8.915l-7.439-3.846c-4.989-2.579-6.68-8.89-3.649-13.618l4.52-7.05
				c2.011-3.137,2.011-7.157,0-10.294l-4.52-7.05c-3.031-4.728-1.34-11.039,3.649-13.618l7.439-3.846
				c3.31-1.711,5.32-5.193,5.147-8.915l-0.389-8.365c-0.261-5.61,4.359-10.23,9.969-9.969l8.365,0.389
				c3.722,0.173,7.204-1.837,8.915-5.147l3.846-7.439c2.579-4.989,8.89-6.68,13.618-3.649l7.05,4.52
				C228.168,147.028,232.189,147.028,235.325,145.017z"/>
		</g>
		<g>
			<path style="fill:#EFA5C4;" d="M287.089,260.195l-0.389-8.365c-0.173-3.722,1.837-7.204,5.147-8.915l7.439-3.846
				c4.989-2.579,6.68-8.89,3.649-13.618l-4.52-7.05c-2.011-3.137-2.011-7.157,0-10.294l4.52-7.05
				c2.012-3.139,1.933-6.97,0.199-9.949c-15.784,6.836-29.84,16.932-41.311,29.436c-6.392,6.967-16.966,8.175-24.82,2.912
				c-12.903-8.647-33.573-19.33-56.895-19.33c-6.103,0-12.724,0.591-19.633,1.692l1.468,2.29c2.011,3.137,2.011,7.157,0,10.294
				l-4.52,7.05c-3.031,4.728-1.34,11.039,3.649,13.618l7.439,3.846c3.31,1.711,5.32,5.193,5.147,8.915l-0.389,8.365
				c-0.261,5.611,4.359,10.231,9.97,9.969l8.365-0.389c3.722-0.173,7.204,1.837,8.915,5.147l3.846,7.44
				c2.579,4.989,8.89,6.68,13.618,3.649l7.05-4.52c3.137-2.011,7.157-2.011,10.294,0l7.05,4.52
				c4.728,3.031,11.039,1.34,13.618-3.649l3.846-7.44c1.711-3.31,5.193-5.32,8.914-5.147l8.365,0.389
				C282.73,270.425,287.35,265.805,287.089,260.195z"/>
		</g>
	</g>
	<g>
		<g>
			<g>
				<path style="fill:#FBF0DC;" d="M254.16,302.427c0-40.899-33.155-74.052-74.053-74.053c-40.898,0-116.369,33.155-116.369,74.053
					L254.16,302.427z"/>
			</g>
			<g>
				<path style="fill:#F4E2C1;" d="M175.358,302.427h78.802c0-30.514-18.461-56.709-44.819-68.048
					C208.397,261.859,195.348,286.262,175.358,302.427z"/>
			</g>
			<g>
				<path style="fill:#E9A761;" d="M138.42,302.427c0-23.027,18.667-41.694,41.694-41.694s41.694,18.667,41.694,41.694
					L138.42,302.427z"/>
			</g>
			<g>
				<path style="fill:#E38523;" d="M202.112,267.01c-5.917,13.902-15.165,26.045-26.754,35.416h46.451
					C221.809,287.476,213.934,274.37,202.112,267.01z"/>
			</g>
		</g>
		<g>
			<g>
				<path style="fill:#F8E883;" d="M254.16,302.427c0-53.483,43.512-96.995,96.995-96.995s96.995,43.512,96.995,96.995H254.16z"/>
			</g>
			<g>
				<path style="fill:#F3D332;" d="M286.492,302.427c0-35.655,29.008-64.663,64.663-64.663s64.663,29.008,64.663,64.663H286.492z"/>
			</g>
			<g>
				<path style="fill:#F8E883;" d="M318.824,302.427c0-17.856,14.475-32.332,32.332-32.332s32.332,14.475,32.332,32.332H318.824z"/>
			</g>
		</g>
	</g>
	<g>
		<path style="fill:#91DAFA;" d="M367.138,504.5H144.858c-11.16,0-20.207-9.047-20.207-20.207v-12.124h262.695v12.124
			C387.346,495.453,378.298,504.5,367.138,504.5z"/>
	</g>
	<g>
		<path style="fill:#D3EFFD;" d="M387.346,472.168H124.65c-41.293,0-74.767-33.474-74.767-74.767v-94.974h412.229v94.974
			C462.113,438.694,428.638,472.168,387.346,472.168z"/>
	</g>
	<g>
		<path style="fill:#B2E5FB;" d="M412.605,302.427v94.974c0,41.293-53.682,74.767-94.974,74.767h69.715
			c41.293,0,74.767-33.474,74.767-74.767v-94.974H412.605z"/>
	</g>
	<path d="M462.115,294.931h-6.736c-2.36-33.125-20.226-62.028-46.364-79.474V165.7c0-4.143-3.358-7.5-7.5-7.5s-7.5,3.357-7.5,7.5
		v41.431c-5.539-2.501-11.336-4.529-17.335-6.041v-99.2h17.335v28.81c0,4.143,3.358,7.5,7.5,7.5s7.5-3.357,7.5-7.5v-28.81h24.83
		c4.142,0,7.5-3.357,7.5-7.5l-0.003-64.663c0-4.143-3.358-7.5-7.5-7.5h-24.88C408.215,9.845,397.91,0,385.344,0
		c-6.052,0-11.759,2.262-16.179,6.392C364.932,2.432,359.252,0,353.012,0c-6.053,0-11.759,2.262-16.179,6.392
		C332.6,2.432,326.921,0,320.68,0c-6.314,0-12.256,2.456-16.75,6.934c-4.12,4.134-6.525,9.52-6.869,15.294H70.037
		c-4.142,0-7.5,3.357-7.5,7.5l-0.002,64.663c0,4.143,3.358,7.5,7.5,7.5h42.01c4.142,0,7.5-3.357,7.5-7.5s-3.358-7.5-7.5-7.5h-34.51
		v-17.33h348.81v17.33h-279.3c-4.142,0-7.5,3.357-7.5,7.5s3.358,7.5,7.5,7.5h149.971v75.931l-1.729-0.895
		c-0.705-0.364-1.136-1.111-1.101-1.896l0.391-8.373c0.221-4.776-1.591-9.455-4.973-12.837c-3.381-3.381-8.056-5.192-12.839-4.973
		l-8.372,0.392c-0.786,0.044-1.534-0.396-1.894-1.09l-3.842-7.443c-2.196-4.248-6.104-7.395-10.723-8.633
		c-4.619-1.238-9.579-0.469-13.608,2.113l-7.045,4.518c-0.669,0.429-1.531,0.431-2.198,0.003l-7.052-4.522
		c-4.027-2.579-8.986-3.349-13.605-2.111c-4.619,1.238-8.527,4.385-10.722,8.63l-3.853,7.445c-0.362,0.699-1.102,1.138-1.896,1.09
		l-8.373-0.391c-4.778-0.215-9.455,1.592-12.836,4.973c-3.381,3.382-5.194,8.061-4.973,12.84l0.391,8.384
		c0.038,0.781-0.391,1.521-1.096,1.885l-7.438,3.85c-4.247,2.196-7.393,6.104-8.631,10.722c-1.238,4.619-0.469,9.578,2.113,13.608
		l4.522,7.055c0.426,0.662,0.423,1.523-0.003,2.189l-4.515,7.043c-0.783,1.218-1.395,2.511-1.84,3.855
		c-39.366,9.953-86.135,36.067-92.334,69.68h-7.057c-4.142,0-7.5,3.357-7.5,7.5v94.97c0,42.832,32.907,78.107,74.765,81.912v4.979
		c0,15.278,12.43,27.708,27.708,27.708h222.281c15.278,0,27.707-12.43,27.707-27.708v-4.979c41.86-3.803,74.77-39.079,74.77-81.913
		v-94.97C469.615,298.288,466.257,294.931,462.115,294.931z M426.342,54.561H409.01V37.228h17.332V54.561z M379.2,17.541
		c1.645-1.639,3.826-2.541,6.144-2.541c4.778,0,8.666,3.888,8.666,8.666v30.895h-17.332V23.666
		C376.678,21.349,377.58,19.167,379.2,17.541z M346.869,17.541c1.644-1.639,3.825-2.541,6.143-2.541
		c4.778,0,8.666,3.888,8.666,8.666v30.895h-17.332V23.666C344.346,21.349,345.249,19.167,346.869,17.541z M314.537,17.541
		c1.645-1.639,3.826-2.541,6.144-2.541c4.778,0,8.666,3.888,8.666,8.666v30.895h-17.332V23.666
		C312.014,21.349,312.917,19.167,314.537,17.541z M297.014,37.228v17.333H77.537V37.228H297.014z M57.385,309.931h397.23v17.327
		H57.385V309.931z M146.758,294.931c3.428-15.26,17.077-26.698,33.356-26.698s29.929,11.439,33.356,26.698H146.758z M390.27,294.931
		c-3.518-18.391-19.714-32.336-39.114-32.336s-35.597,13.945-39.115,32.336h-17.542c3.685-27.989,27.678-49.668,56.656-49.668
		s52.971,21.679,56.656,49.668H390.27z M374.828,294.931h-47.346c3.186-10.04,12.592-17.336,23.673-17.336
		S371.642,284.891,374.828,294.931z M440.334,294.931h-17.405c-3.762-36.281-34.514-64.668-71.773-64.668
		s-68.012,28.386-71.774,64.668h-17.404c3.821-45.853,42.355-81.999,89.178-81.999S436.513,249.078,440.334,294.931z
		 M361.68,198.459c-3.462-0.348-6.972-0.528-10.524-0.528c-2.288,0-4.556,0.082-6.808,0.228v-96.269h17.332V198.459z
		 M329.348,101.891v98.337c-5.981,1.275-11.774,3.063-17.332,5.316V101.891H329.348z M168.259,204.062l-4.519-7.047
		c-0.402-0.629-0.36-1.233-0.253-1.631c0.106-0.396,0.372-0.94,1.035-1.283l7.435-3.849c5.903-3.05,9.51-9.305,9.189-15.922
		l-0.39-8.367c-0.035-0.743,0.305-1.246,0.595-1.537c0.291-0.289,0.788-0.633,1.533-0.595l8.358,0.39
		c6.642,0.33,12.886-3.287,15.932-9.185l3.852-7.442c0.342-0.661,0.886-0.927,1.283-1.033c0.398-0.106,1.002-0.148,1.627,0.252
		l7.046,4.519c5.578,3.581,12.795,3.583,18.39,0.002l7.048-4.519c0.628-0.403,1.231-0.361,1.629-0.254
		c0.396,0.106,0.94,0.372,1.28,1.029l3.849,7.456c3.062,5.893,9.311,9.489,15.926,9.176l8.357-0.391
		c0.735-0.046,1.245,0.305,1.536,0.595c0.291,0.291,0.63,0.794,0.596,1.534l-0.391,8.378c-0.303,6.624,3.309,12.871,9.195,15.912
		l7.443,3.852c0.661,0.342,0.926,0.886,1.033,1.282c0.106,0.397,0.149,1.003-0.252,1.628l-4.517,7.045
		c-2.637,4.106-3.327,9.098-2.084,13.678c-16.647,12.05-29.618,28.878-36.88,48.459c-2.697-5.415-5.973-10.491-9.756-15.142
		c1.459-1.368,2.376-3.308,2.376-5.467c0-4.143-3.358-7.5-7.5-7.5c-13.692,0-24.832-11.14-24.832-24.832
		s11.139-24.832,24.832-24.832c4.778,0,8.666,3.888,8.666,8.666s-3.888,8.666-8.666,8.666c-4.142,0-7.5,3.357-7.5,7.5
		s3.358,7.5,7.5,7.5c13.049,0,23.666-10.616,23.666-23.666s-10.617-23.666-23.666-23.666c-21.963,0-39.832,17.868-39.832,39.832
		c0,3.458,0.445,6.815,1.277,10.017c-6.282-1.556-12.843-2.396-19.599-2.396c-3.53,0-7.336,0.244-11.338,0.709
		C171.824,216.126,171.657,209.355,168.259,204.062z M110.245,256.61c22.195-12.403,50.271-20.736,69.863-20.736
		c34.162,0,62.381,25.877,66.119,59.057h-17.489c-3.621-23.581-24.046-41.698-48.624-41.698s-45.003,18.117-48.624,41.698H72.343
		C76.116,281.839,89.463,268.225,110.245,256.61z M387.371,464.669c-0.009,0-0.017-0.001-0.026-0.001
		c-0.013,0-189.73,0.002-189.73,0.002c-4.142,0-7.5,3.357-7.5,7.5s3.358,7.5,7.5,7.5h182.23v4.622c0,7.007-5.7,12.708-12.707,12.708
		H144.858c-7.007,0-12.708-5.701-12.708-12.708v-4.622h30.465c4.142,0,7.5-3.357,7.5-7.5s-3.358-7.5-7.5-7.5
		c0,0-37.952-0.002-37.965-0.002c-0.008,0-0.016,0.001-0.024,0.001c-37.08-0.016-67.241-30.186-67.241-67.269v-55.143h397.23V397.4
		C454.615,434.484,424.452,464.655,387.371,464.669z"/>
</g>
<g>
</g>
<g>
</g>
<g>
</g>
<g>
</g>
<g>
</g>
<g>
</g>
<g>
</g>
<g>
</g>
<g>
</g>
<g>
</g>
<g>
</g>
<g>
</g>
<g>
</g>
<g>
</g>
<g>
</g>
</svg>
