<?xml version="1.0" encoding="iso-8859-1"?>
<!-- Generator: Adobe Illustrator 24.1.0, SVG Export Plug-In . SVG Version: 6.00 Build 0)  -->
<svg version="1.1" id="Capa_1" xmlns="http://www.w3.org/2000/svg" xmlns:xlink="http://www.w3.org/1999/xlink" x="0px" y="0px"
	 viewBox="0 0 512 512" style="enable-background:new 0 0 512 512;" xml:space="preserve">
<g>
	<g>
		<g>
			<circle style="fill:#FBF0DC;" cx="256" cy="256" r="248.5"/>
		</g>
		<g>
			<path style="fill:#F4E2C1;" d="M419.608,68.97c38.269,43.711,61.47,100.947,61.47,163.608c0,137.243-111.257,248.5-248.5,248.5
				c-62.661,0-119.897-23.201-163.608-61.47C114.519,471.636,181.418,504.5,256,504.5c137.243,0,248.5-111.257,248.5-248.5
				C504.5,181.418,471.636,114.519,419.608,68.97z"/>
		</g>
		<g>
			<circle style="fill:#F3D69E;" cx="256" cy="256" r="202.033"/>
		</g>
	</g>
	<g>
		<g>
			<path style="fill:#E38523;" d="M359.362,109.256l-17.438-10.305c-3.075-1.817-4.962-5.124-4.962-8.697v-11.39
				c0-11.373,12.063-18.691,22.15-13.438l17.967,9.358c20.04,10.437,32.609,31.156,32.609,53.751v32.02
				c0,11.158-9.045,20.203-20.203,20.203h-20.198v-54.11C369.287,119.505,365.513,112.891,359.362,109.256z"/>
		</g>
		<g>
			<path style="fill:#D76718;" d="M336.962,160.556v-46.834c0-7.822,8.507-12.676,15.241-8.697l7.16,4.231
				c6.151,3.635,9.925,10.248,9.925,17.393v54.11h-12.122C346.007,180.759,336.962,171.714,336.962,160.556z"/>
		</g>
	</g>
	<g>
		<path style="fill:#E38523;" d="M367.264,213.084h12.122c5.579,0,10.102-4.523,10.102-10.102v-22.224h-32.325v22.224
			C357.162,208.562,361.685,213.084,367.264,213.084z"/>
	</g>
	<g>
		<g>
			<path style="fill:#E38523;" d="M152.07,109.256l17.438-10.305c3.075-1.817,4.962-5.124,4.962-8.697v-11.39
				c0-11.373-12.063-18.691-22.15-13.438l-17.967,9.358c-20.04,10.437-32.609,31.156-32.609,53.751v32.02
				c0,11.158,9.045,20.203,20.203,20.203h20.198v-54.11C142.145,119.505,145.919,112.891,152.07,109.256z"/>
		</g>
		<g>
			<path style="fill:#D76718;" d="M174.471,160.556v-46.834c0-7.822-8.507-12.676-15.241-8.697l-7.16,4.231
				c-6.151,3.635-9.925,10.248-9.925,17.393v54.11h12.122C165.425,180.759,174.471,171.714,174.471,160.556z"/>
		</g>
	</g>
	<g>
		<path style="fill:#E38523;" d="M144.168,213.084h-12.122c-5.579,0-10.102-4.523-10.102-10.102v-22.224h32.325v22.224
			C154.27,208.562,149.747,213.084,144.168,213.084z"/>
	</g>
	<g>
		<path style="fill:#E9A761;" d="M256,358.962c-56.596,0.307-56.6,91.008-56.6,91.008c30.94-4.42,46.838-23.732,53.191-33.894
			c1.569-2.51,5.25-2.51,6.819,0c6.353,10.162,22.251,29.473,53.191,33.894C312.6,449.97,312.596,359.269,256,358.962z"/>
	</g>
	<g>
		<path style="fill:#E38523;" d="M256,358.962c-21.7,0.117-35.074,13.527-43.324,30.014c2.407,1.764,5.023,3.287,7.823,4.525
			l18.279,8.077c5.369,2.372,11.068,3.576,16.939,3.576c5.87,0,11.569-1.204,16.938-3.576l18.277-8.077
			c2.963-1.309,5.717-2.94,8.237-4.835C290.906,372.321,277.563,359.079,256,358.962z"/>
	</g>
	<g>
		<path style="fill:#D76718;" d="M293.676,318.73v36.442c0,7.793-4.598,14.852-11.726,18.002l-18.278,8.077
			c-5.067,2.239-10.844,2.239-15.911,0l-18.278-8.077c-7.128-3.15-11.726-10.209-11.726-18.002v-36.44L293.676,318.73z"/>
	</g>
	<g>
		<path style="fill:#E38523;" d="M293.676,280.186v38.717c0,7.793-4.598,14.852-11.726,18.002l-18.278,8.077
			c-5.067,2.239-10.844,2.239-15.911,0l-18.278-8.077c-7.128-3.15-11.726-10.209-11.726-18.002v-38.717H293.676z"/>
	</g>
	<g>
		<path style="fill:#E9A761;" d="M299.154,222.426v44.304c0,8.918-5.262,16.996-13.419,20.6l-20.916,9.243
			c-5.799,2.562-12.409,2.562-18.207,0l-20.916-9.243c-8.157-3.605-13.419-11.683-13.419-20.6v-44.304H299.154z"/>
	</g>
	<g>
		<path style="fill:#E38523;" d="M292.103,135.954l-24.156-23.016c-3.297-3.141-7.677-4.894-12.231-4.894s-8.934,1.752-12.231,4.894
			l-24.156,23.016c-8.004,7.626-12.533,18.198-12.533,29.254v35.401c0,27.018,21.902,48.921,48.92,48.921
			c27.018,0,48.92-21.902,48.92-48.921v-35.401C304.637,154.152,300.107,143.58,292.103,135.954z"/>
	</g>
	<g>
		<path style="fill:#D76718;" d="M292.103,135.954l-8.005-7.628c1.722,4.536,2.637,9.387,2.637,14.338v35.401
			c0,27.018-21.902,48.921-48.92,48.921c-10.269,0-19.794-3.17-27.664-8.577c7.121,18.213,24.83,31.12,45.565,31.12
			c27.018,0,48.92-21.902,48.92-48.921v-35.401C304.637,154.152,300.107,143.58,292.103,135.954z"/>
	</g>
	<g>
		<g>
			<path style="fill:#F8E883;" d="M371.27,274.577c26.024,7.389,41.131,34.475,33.742,60.5s-34.475,41.131-60.5,33.742
				L371.27,274.577z"/>
		</g>
		<g>
			<path style="fill:#F3D332;" d="M394.756,289.454c2.962,8.978,3.363,18.906,0.587,28.685
				c-6.067,21.368-25.414,35.363-46.548,35.602l-4.281,15.078c26.024,7.389,53.111-7.718,60.5-33.742
				C409.716,318.512,405.295,301.526,394.756,289.454z"/>
		</g>
	</g>
	<g>
		<g>
			<path style="fill:#F8E883;" d="M140.73,274.577c-26.024,7.389-41.131,34.475-33.742,60.5c7.389,26.024,34.475,41.131,60.5,33.742
				L140.73,274.577z"/>
		</g>
		<g>
			<path style="fill:#F3D332;" d="M149.655,306.012c-1.934,7.802-5.107,16.095-9.524,24.323
				c-5.788,10.782-12.847,19.855-20.136,26.507c12.146,11.768,30.053,16.928,47.492,11.977L149.655,306.012z"/>
		</g>
	</g>
	<g>
		<path d="M443.657,81.858c-2.816-3.037-7.563-3.213-10.599-0.396c-3.036,2.817-3.214,7.562-0.396,10.599
			C474.151,136.766,497,194.986,497,256c0,64.372-25.068,124.893-70.588,170.412S320.372,497,256,497
			s-124.893-25.068-170.412-70.588S15,320.372,15,256S40.068,131.107,85.588,85.588S191.628,15,256,15
			c55.185,0,109.131,19.135,151.9,53.881c3.216,2.612,7.939,2.121,10.551-1.092c2.611-3.216,2.123-7.938-1.092-10.551
			C371.924,20.328,314.619,0,256,0C187.621,0,123.334,26.629,74.981,74.981S0,187.621,0,256s26.629,132.666,74.981,181.019
			S187.621,512,256,512s132.666-26.629,181.019-74.981S512,324.379,512,256C512,191.189,487.729,129.345,443.657,81.858z"/>
		<path d="M129.758,423.242C166.352,450.907,210.006,465.53,256,465.53c115.535,0,209.53-93.995,209.53-209.53
			c0-49.118-17.277-96.689-48.682-134.257c-2.252-22.752-15.729-42.893-36.305-53.61l-17.967-9.358
			c-7.082-3.688-15.385-3.417-22.212,0.725c-1.426,0.865-2.724,1.872-3.898,2.987C310.985,51.856,283.947,46.468,256,46.468
			c-28.092,0-55.263,5.444-80.862,16.181c-1.219-1.181-2.575-2.246-4.072-3.154c-6.827-4.14-15.131-4.408-22.208-0.719
			l-17.974,9.353c-20.805,10.837-34.345,31.312-36.371,54.377C63.52,159.95,46.47,207.249,46.47,256
			c0,53.287,20.015,104.068,56.358,142.989c1.477,1.581,3.478,2.381,5.483,2.381c1.833,0,3.671-0.668,5.117-2.019
			c3.027-2.827,3.189-7.572,0.362-10.601C80.051,352.618,61.47,305.474,61.47,256c0-38.618,11.52-76.253,32.771-108.061v12.62
			c0,12.674,8.562,23.379,20.205,26.659v15.763c0,9.219,7.129,16.792,16.162,17.529v2.367c0,13.849,9.422,25.705,22.911,28.832
			l51.26,11.888v3.133c0,6.307,1.995,12.294,5.478,17.251v1.298h-19.957c-2.147,0-4.192,0.921-5.616,2.529l-7.553,8.533
			c-2.745,3.102-2.456,7.842,0.646,10.587c1.427,1.263,3.201,1.884,4.968,1.884c2.073,0,4.137-0.854,5.619-2.529l5.314-6.004h16.579
			v18.092h-11.875c-2.147,0-4.192,0.921-5.615,2.528l-7.554,8.532c-2.746,3.102-2.458,7.842,0.644,10.587
			c1.428,1.264,3.201,1.885,4.969,1.885c2.073,0,4.137-0.854,5.618-2.528l5.315-6.004h8.498v21.801
			c0,5.793,1.858,11.288,5.097,15.813c-17.116,20.747-21.742,52.748-22.99,68.938c-19.062-6.592-37.083-16.19-53.56-28.646
			c-3.305-2.499-8.008-1.845-10.505,1.46C125.8,416.041,126.453,420.744,129.758,423.242z M319.631,439.832
			c-1.266-16.316-5.955-48.522-23.295-69.211c3.08-4.455,4.84-9.81,4.84-15.448v-21.801h8.499l5.313,6.003
			c1.482,1.675,3.546,2.529,5.619,2.529c1.767,0,3.541-0.621,4.968-1.884c3.102-2.746,3.391-7.485,0.646-10.587l-7.553-8.532
			c-1.424-1.608-3.469-2.529-5.616-2.529h-11.876v-18.092h16.58l5.314,6.005c1.482,1.674,3.546,2.528,5.619,2.528
			c1.767,0,3.541-0.621,4.968-1.884c3.102-2.746,3.391-7.486,0.646-10.588l-7.554-8.533c-1.424-1.607-3.469-2.528-5.616-2.528
			h-19.957v-1.297c3.483-4.957,5.479-10.944,5.479-17.251v-3.133l51.26-11.888c13.489-3.128,22.911-14.984,22.911-28.832v-2.367
			c9.033-0.737,16.162-8.309,16.162-17.529v-15.765c11.64-3.281,20.2-13.987,20.2-26.662v-13.471
			C438.809,179.065,450.53,217.008,450.53,256C450.53,340.989,395.74,413.413,319.631,439.832z M248.659,118.367
			c1.91-1.82,4.417-2.823,7.057-2.823s5.146,1.003,7.058,2.823l24.156,23.017c6.487,6.181,10.207,14.863,10.207,23.823v35.401
			c0,22.84-18.581,41.421-41.421,41.421c-22.839,0-41.42-18.581-41.42-41.421v-35.401c0-8.96,3.721-17.643,10.207-23.823
			L248.659,118.367z M379.386,205.584h-12.122c-1.435,0-2.602-1.167-2.602-2.602V188.26h4.628c0.008,0,0.016-0.001,0.024-0.001
			h12.673v14.724C381.987,204.417,380.82,205.584,379.386,205.584z M361.787,173.26h-4.617c-7.01,0-12.71-5.7-12.71-12.7v-46.84
			c0-1.31,0.82-1.98,1.31-2.26c0.29-0.16,0.75-0.35,1.3-0.35c0.385,0,0.818,0.088,1.269,0.344l7.208,4.26
			c3.85,2.274,6.24,6.465,6.24,10.936V173.26z M333.941,101.964c-2.863,3.168-4.481,7.292-4.481,11.756v46.84
			c0,12.67,8.56,23.376,20.202,26.658v15.764c0,9.219,7.13,16.792,16.163,17.529v2.367c0,6.83-4.646,12.678-11.3,14.221
			l-47.871,11.102v-23.352c3.511-7.348,5.482-15.568,5.482-24.24v-35.401c0-13.044-5.416-25.686-14.859-34.683l-16.425-15.65V74.048
			c0-4.219,3.433-7.651,7.651-7.651s7.651,3.433,7.651,7.651v12.243c0,4.143,3.357,7.5,7.5,7.5s7.5-3.357,7.5-7.5V74.048
			c0-1.65-0.182-3.257-0.518-4.808c6.431,1.883,12.772,4.108,19.014,6.669c-0.125,0.971-0.189,1.957-0.189,2.956v11.39
			C329.462,94.616,331.109,98.779,333.941,101.964z M255.716,257.029c13.644,0,26.171-4.87,35.938-12.961v22.662
			c0,5.944-3.513,11.338-8.95,13.74l-20.917,9.243c-3.857,1.707-8.284,1.705-12.144,0l-20.916-9.243
			c-5.437-2.402-8.949-7.796-8.949-13.74v-22.662C229.545,252.16,242.072,257.029,255.716,257.029z M225.256,295.336l18.325,8.098
			c3.856,1.704,7.996,2.556,12.135,2.556c4.14,0,8.279-0.852,12.135-2.556l18.325-8.098v23.567c0,4.82-2.849,9.194-7.258,11.142
			l-18.277,8.077c-3.129,1.382-6.718,1.384-9.849,0l-18.278-8.077c-4.409-1.948-7.258-6.321-7.258-11.142V295.336z M232.515,366.314
			c-4.409-1.949-7.259-6.323-7.259-11.143v-11.988c0.396,0.198,0.788,0.401,1.195,0.582l18.278,8.077
			c3.491,1.542,7.239,2.313,10.986,2.313c3.748,0,7.496-0.771,10.987-2.313l18.277-8.077c0.408-0.18,0.8-0.383,1.195-0.582v11.988
			c0,4.82-2.849,9.193-7.258,11.142l-18.277,8.077c-3.13,1.383-6.721,1.382-9.849,0L232.515,366.314z M344.462,78.865
			c0-3.888,2.575-5.87,3.683-6.542s4.058-2.04,7.503-0.245l17.966,9.357c17.625,9.18,28.574,27.228,28.574,47.1v32.021
			c0,7.005-5.698,12.703-12.703,12.703h-12.697v-46.609c0-9.751-5.215-18.89-13.609-23.85l-17.438-10.306
			c-0.788-0.466-1.277-1.323-1.277-2.239V78.865z M269.38,61.932c-2.23,3.507-3.527,7.662-3.527,12.116v28.619
			c-3.161-1.387-6.599-2.123-10.137-2.123c-3.327,0-6.566,0.65-9.568,1.88V74.048c0-4.455-1.298-8.609-3.527-12.116
			c4.434-0.298,8.892-0.464,13.38-0.464S264.947,61.633,269.38,61.932z M109.24,160.56v-32.02c0-19.876,10.949-37.927,28.571-47.106
			l17.976-9.354c3.447-1.798,6.395-0.431,7.501,0.24c1.107,0.672,3.682,2.652,3.682,6.54v11.39c0,0.917-0.492,1.779-1.278,2.245
			l-17.433,10.306c-8.395,4.954-13.608,14.093-13.608,23.85v1.68c0,4.143,3.357,7.5,7.5,7.5s7.5-3.357,7.5-7.5v-1.68
			c0-4.475,2.388-8.663,6.234-10.933l7.12-4.209c0.015-0.009,0.03-0.015,0.044-0.023c1.131-0.668,2.12-0.299,2.61-0.02
			c0.489,0.279,1.311,0.943,1.311,2.254v46.84c0,7.003-5.697,12.7-12.7,12.7h-4.619v-9.93c0-4.143-3.357-7.5-7.5-7.5
			s-7.5,3.357-7.5,7.5v9.93h-12.7C114.942,173.26,109.24,167.562,109.24,160.56z M129.445,202.982V188.26h12.705h4.62v14.723
			c0,1.435-1.167,2.602-2.602,2.602h-12.122C130.612,205.584,129.445,204.417,129.445,202.982z M156.907,237.098
			c-6.653-1.542-11.3-7.39-11.3-14.22v-2.367c9.033-0.736,16.163-8.309,16.163-17.529v-15.763
			c11.64-3.279,20.199-13.985,20.199-26.66v-46.84c0-4.463-1.619-8.589-4.482-11.756c2.834-3.188,4.482-7.354,4.482-11.714V78.86
			c0-0.921-0.06-1.831-0.167-2.729c6.418-2.656,12.942-4.953,19.56-6.89c-0.336,1.55-0.518,3.157-0.518,4.806v12.243
			c0,4.143,3.357,7.5,7.5,7.5s7.5-3.357,7.5-7.5V74.048c0-4.219,3.433-7.651,7.651-7.651s7.651,3.433,7.651,7.651v40.286
			l-16.992,16.19c-9.443,8.997-14.859,21.639-14.859,34.683v35.401c0,8.673,1.971,16.892,5.482,24.241v23.351L156.907,237.098z
			 M227.098,380.32l17.631,7.791c3.491,1.542,7.239,2.313,10.986,2.313c3.748,0,7.496-0.771,10.987-2.313l18.036-7.97
			c14.527,17.133,18.695,45.853,19.885,60.554c-21.74-5.885-33.508-20.031-38.854-28.597c-2.12-3.384-5.772-5.404-9.771-5.404
			s-7.65,2.021-9.776,5.414c-5.342,8.559-17.108,22.707-38.858,28.59C208.536,426.062,212.659,397.52,227.098,380.32z M256,424.437
			c5.496,7.613,14.381,17.097,27.718,24.11c-9.056,1.298-18.308,1.983-27.718,1.983c-9.381,0-18.656-0.656-27.78-1.951
			C241.595,441.561,250.499,432.058,256,424.437z"/>
		<path d="M271.879,187.495c4.463,0,8.081-3.618,8.081-8.082c0-4.463-3.618-8.081-8.081-8.081c-4.463,0-8.081,3.618-8.081,8.081
			C263.797,183.876,267.416,187.495,271.879,187.495z"/>
		<path d="M239.553,187.495c4.463,0,8.081-3.618,8.081-8.082c0-4.463-3.618-8.081-8.081-8.081c-4.463,0-8.081,3.618-8.081,8.081
			C231.472,183.876,235.09,187.495,239.553,187.495z"/>
		<path d="M373.319,267.362c-3.987-1.129-8.133,1.182-9.264,5.166l-26.757,94.242c-1.131,3.985,1.182,8.132,5.166,9.264
			c5.12,1.454,10.33,2.173,15.511,2.173c9.503,0,18.9-2.423,27.429-7.18c13.177-7.349,22.703-19.389,26.823-33.902
			c4.121-14.514,2.343-29.763-5.006-42.939S387.833,271.483,373.319,267.362z M397.798,333.027c-1.209,4.26-3.063,8.224-5.458,11.8
			l-19.31-18.865l26.322-5.899C399.518,324.382,399.013,328.748,397.798,333.027z M376.253,284.487
			c7.505,3.683,13.71,9.548,17.868,17.005c0.718,1.287,1.358,2.602,1.93,3.938l-27.493,6.162L376.253,284.487z M353.961,363.007
			l7.713-27.169l20.183,19.718c-1.204,0.849-2.455,1.644-3.76,2.372C370.641,362.087,362.278,363.811,353.961,363.007z"/>
		<path d="M169.535,376.034c3.984-1.132,6.297-5.278,5.166-9.264l-26.757-94.242c-1.131-3.985-5.279-6.298-9.264-5.166
			c-14.514,4.121-26.554,13.646-33.902,26.823s-9.127,28.426-5.006,42.939c4.12,14.514,13.646,26.554,26.823,33.902
			c8.528,4.757,17.925,7.18,27.429,7.18C159.204,378.207,164.416,377.487,169.535,376.034z M135.747,284.487l7.695,27.104
			l-27.493-6.162c0.573-1.336,1.212-2.651,1.93-3.938C122.037,294.035,128.242,288.17,135.747,284.487z M119.66,344.827
			c-2.396-3.576-4.249-7.539-5.458-11.8c-1.215-4.279-1.72-8.645-1.554-12.965l26.322,5.899L119.66,344.827z M133.902,357.928
			c-1.305-0.728-2.556-1.523-3.76-2.372l20.183-19.718l7.713,27.169C149.727,363.812,141.358,362.087,133.902,357.928z"/>
	</g>
</g>
<g>
</g>
<g>
</g>
<g>
</g>
<g>
</g>
<g>
</g>
<g>
</g>
<g>
</g>
<g>
</g>
<g>
</g>
<g>
</g>
<g>
</g>
<g>
</g>
<g>
</g>
<g>
</g>
<g>
</g>
</svg>
